# xmcd
#
# Track frame offsets: 
#        150
#        5140
#        30493
#        53738
#        76818
#        104105
#        128448
#        151273
#        165378
#        186518
#        204338
#        217830
#        256408
#
# Disc length: 3535 seconds
#
# Revision: 3
# Processed by: cddbd v1.5.2PL0 Copyright (c) Steve Scherf et al.
# Submitted via: ExactAudioCopy v0.99pb5
#
DISCID=a20dcd0d
DTITLE=Knut Reiersrud - Klapp
DYEAR=1995
DGENRE=Blues
TTITLE0=Forspill
TTITLE1=Willie And The Handjive
TTITLE2=Deep Blue Sea
TTITLE3=Musse Jante
TTITLE4=Clap Hands
TTITLE5=Needed Time
TTITLE6=Store Gutter Gråter Ikke
TTITLE7=Alabama Blues
TTITLE8=God Don't Never Change
TTITLE9=Les Printemps
TTITLE10=Klapp Igjen
TTITLE11=I Don't Feel Noways Tired
TTITLE12=Etterspill: Agirlama
EXTD=
EXTT0=
EXTT1=
EXTT2=
EXTT3=
EXTT4=
EXTT5=
EXTT6=
EXTT7=
EXTT8=
EXTT9=
EXTT10=
EXTT11=
EXTT12=
PLAYORDER=
